<svg width="234" height="72" viewBox="0 0 234 72" fill="none" xmlns="http://www.w3.org/2000/svg">
<rect width="233.04" height="71.52" rx="12" fill="white" fill-opacity="0.02"/>
<path d="M53.0957 17H26.0029C16.2122 19.3418 16 27.484 16 27.484V55H26.4182V29.9159C26.4126 29.3257 26.6177 28.7521 26.9982 28.2936C27.3788 27.835 27.9111 27.5201 28.5036 27.4029H53.0957V17ZM32.5085 31.4831C32.5085 31.4831 30.4876 31.2849 30.4876 33.0773V41.0484H43.8679V43.4262C43.8771 43.5843 43.8522 43.7425 43.7949 43.8907C43.7377 44.0389 43.6493 44.1737 43.5354 44.2866C43.4215 44.3994 43.2848 44.4877 43.1338 44.5458C42.9829 44.604 42.8212 44.6306 42.6591 44.6241H30.4876V54.982H45.0767C45.0767 54.982 53.9262 53.631 54 44.6241V31.4831H32.5085Z" fill="white"/>
<path d="M87.3857 33.2791C86.9695 33.564 86.6709 33.7687 86.4809 33.8933C85.7563 34.335 85.0003 34.7247 84.2187 35.0592C83.365 35.4411 82.4417 35.65 81.5041 35.6734C80.2596 35.7114 79.0196 35.5077 77.8551 35.074C76.6906 34.6402 75.6245 33.985 74.7177 33.1456C73.8316 32.3317 73.1313 31.3418 72.6634 30.2417C72.1954 29.1415 71.9703 27.9561 72.0031 26.7639C71.9632 24.3936 72.8396 22.0968 74.4553 20.3377C75.1856 19.4853 76.0995 18.8035 77.1309 18.3417C78.1623 17.8798 79.2852 17.6496 80.4183 17.6675C81.4937 17.6548 82.5638 17.8172 83.5853 18.1482C84.8774 18.5319 86.0568 19.2157 87.0238 20.1419L85.4584 21.922C84.748 21.2447 83.8772 20.7522 82.9248 20.489C82.1104 20.2573 81.2661 20.1434 80.4183 20.1508C79.6207 20.1466 78.8329 20.3245 78.1169 20.6705C77.401 21.0164 76.7763 21.521 76.2922 22.1445C75.1852 23.4962 74.5988 25.1888 74.6363 26.9241C74.6101 27.7702 74.7649 28.6123 75.0907 29.3958C75.4165 30.1793 75.906 30.8868 76.5274 31.4723C77.1644 32.0747 77.918 32.545 78.7434 32.8554C79.5688 33.1658 80.4491 33.3099 81.3322 33.2791C82.2179 33.2568 83.0797 32.9917 83.8206 32.5137L84.9064 31.7037V27.8498H79.6401L80.4002 25.4733H87.3857V33.2791ZM103.275 28.633C103.286 29.5164 103.12 30.3932 102.786 31.2134C102.452 32.0335 101.957 32.7809 101.33 33.4126C100.723 34.0477 99.9904 34.5538 99.1773 34.8997C98.3642 35.2457 97.4876 35.4242 96.6017 35.4242C95.7158 35.4242 94.8392 35.2457 94.0261 34.8997C93.213 34.5538 92.4805 34.0477 91.8738 33.4126C91.2294 32.7874 90.7213 32.0396 90.3806 31.2147C90.0399 30.3899 89.8737 29.5054 89.8922 28.6152C89.8699 26.8254 90.5469 25.0955 91.7833 23.7822C92.3568 23.129 93.0687 22.6071 93.8691 22.2535C94.6694 21.8998 95.5389 21.7229 96.4162 21.7351C97.3335 21.7031 98.2472 21.8627 99.0972 22.2033C99.9472 22.5438 100.714 23.0577 101.348 23.711C101.99 24.3612 102.492 25.1324 102.823 25.9783C103.154 26.8241 103.308 27.7272 103.275 28.633ZM100.805 28.633C100.837 27.4765 100.405 26.354 99.6013 25.5089C99.2125 25.0888 98.7368 24.7555 98.2062 24.5314C97.6755 24.3072 97.1022 24.1975 96.5248 24.2095C95.9649 24.2052 95.4109 24.3226 94.9026 24.5534C94.3942 24.7842 93.9439 25.1227 93.584 25.5445C92.7976 26.3799 92.3613 27.4767 92.3624 28.6152C92.3426 29.7624 92.7812 30.8714 93.584 31.7037C93.9683 32.1222 94.4393 32.4548 94.9653 32.679C95.4914 32.9031 96.0602 33.0137 96.6334 33.0032C97.1863 33.0052 97.7334 32.892 98.2387 32.6711C98.744 32.4502 99.1961 32.1266 99.5651 31.7215C99.9694 31.3205 100.287 30.8435 100.5 30.319C100.713 29.7945 100.817 29.2333 100.805 28.6686V28.633ZM118.902 28.633C118.913 29.5164 118.747 30.3932 118.413 31.2134C118.079 32.0335 117.584 32.7809 116.956 33.4126C116.35 34.0477 115.617 34.5538 114.804 34.8997C113.991 35.2457 113.115 35.4242 112.229 35.4242C111.343 35.4242 110.466 35.2457 109.653 34.8997C108.84 34.5538 108.107 34.0477 107.501 33.4126C106.856 32.7874 106.348 32.0396 106.008 31.2147C105.667 30.3899 105.501 29.5054 105.519 28.6152C105.497 26.8254 106.174 25.0955 107.41 23.7822C107.984 23.129 108.696 22.6071 109.496 22.2535C110.296 21.8998 111.166 21.7229 112.043 21.7351C112.96 21.7031 113.874 21.8627 114.724 22.2033C115.574 22.5438 116.341 23.0577 116.975 23.711C117.625 24.3575 118.135 25.127 118.474 25.973C118.813 26.8191 118.974 27.724 118.947 28.633H118.902ZM116.432 28.633C116.448 28.0519 116.346 27.4734 116.134 26.9311C115.921 26.3887 115.601 25.8932 115.192 25.4733C114.803 25.0532 114.328 24.7199 113.797 24.4958C113.266 24.2716 112.693 24.1619 112.116 24.1739C111.556 24.1696 111.002 24.287 110.493 24.5178C109.985 24.7486 109.535 25.0871 109.175 25.5089C108.395 26.347 107.965 27.4435 107.971 28.5796C107.951 29.7268 108.39 30.8358 109.193 31.6681C109.577 32.0965 110.051 32.4378 110.582 32.6683C111.113 32.8989 111.689 33.0131 112.269 33.0032C112.822 33.0052 113.369 32.892 113.875 32.6711C114.38 32.4502 114.832 32.1266 115.201 31.7215C115.612 31.3235 115.937 30.8478 116.156 30.3232C116.375 29.7986 116.484 29.2358 116.477 28.6686L116.432 28.633ZM133.452 35.0592L131.181 35.4064V33.2079L130.692 33.7687C130.267 34.1706 129.782 34.5067 129.254 34.7655C128.482 35.1272 127.638 35.3128 126.783 35.3085C125.929 35.3228 125.082 35.1544 124.301 34.8147C123.52 34.4751 122.823 33.9723 122.259 33.3414C121.062 32.0594 120.414 30.3731 120.449 28.633C120.412 26.8553 121.058 25.1293 122.259 23.8C122.808 23.1587 123.496 22.6461 124.273 22.2996C125.049 21.9532 125.895 21.7816 126.747 21.7974C127.651 21.7731 128.55 21.9432 129.38 22.2958C129.885 22.5261 130.342 22.846 130.728 23.2393L131.108 23.7644V17.9613L133.524 17.6141V35.0681L133.452 35.0592ZM131.326 28.8289C131.342 28.2207 131.233 27.6156 131.006 27.0498C130.779 26.4839 130.439 25.9689 130.005 25.5356C129.63 25.114 129.168 24.7754 128.65 24.5422C128.132 24.3089 127.57 24.1865 127 24.1828C126.429 24.1617 125.86 24.2657 125.334 24.4874C124.808 24.709 124.339 25.0427 123.96 25.4644C123.23 26.2934 122.837 27.3584 122.856 28.455C122.827 29.6436 123.246 30.8008 124.032 31.7037C124.382 32.1174 124.823 32.4476 125.322 32.6696C125.82 32.8916 126.363 32.9996 126.91 32.9854C128.048 32.9921 129.144 32.5646 129.968 31.7927C130.398 31.4239 130.742 30.9681 130.976 30.4566C131.21 29.9451 131.33 29.3899 131.326 28.8289ZM146.183 20.4089H139.415V25.0372H144.654V27.4137H139.415V35.0592L136.782 35.4509V17.9791H145.641L146.183 20.4089ZM151.613 19.0471L149.993 21.1121L148.464 19.0382L150.101 17L151.613 19.0471ZM151.133 35.0681L148.717 35.3975V22.4827L151.133 22.1089V35.0681ZM162.037 21.9754L160.905 24.6456C160.755 24.6353 160.604 24.6353 160.453 24.6456C160.217 24.6457 159.981 24.6635 159.747 24.699C159.486 24.749 159.233 24.836 158.996 24.9571C158.405 25.276 157.94 25.7805 157.675 26.3901C157.26 27.2208 157.046 28.1347 157.051 29.0603V35.0592L154.635 35.4509V22.4827L156.87 22.0733V24.7435C157.159 24.2718 157.458 23.8089 157.775 23.3283C158.161 22.8672 158.659 22.5091 159.222 22.2869C159.742 22.1271 160.28 22.0343 160.824 22.011C161.226 21.9626 161.632 21.9507 162.037 21.9754ZM179.998 35.0592L177.582 35.4064V26.5058C177.641 25.8658 177.447 25.228 177.039 24.7257C176.827 24.5275 176.574 24.3753 176.299 24.2787C176.023 24.1821 175.729 24.1434 175.437 24.165C175.044 24.1553 174.655 24.2534 174.315 24.4483C173.975 24.6432 173.696 24.9272 173.51 25.2686C173.224 25.727 173.067 26.2526 173.058 26.7906V35.0592L170.651 35.5043V26.6037C170.691 25.9684 170.506 25.339 170.126 24.8236C169.948 24.6216 169.727 24.4616 169.478 24.3553C169.229 24.2489 168.959 24.1991 168.687 24.2095H168.452C168.076 24.1947 167.704 24.289 167.383 24.4804C167.061 24.6719 166.803 24.9522 166.642 25.2864C166.331 25.9306 166.182 26.6388 166.208 27.3514V35.0592L163.701 35.5043V22.4827L165.955 22.0911V23.7466C166.165 23.4082 166.414 23.0946 166.697 22.8121C166.993 22.5236 167.345 22.2963 167.732 22.1435C168.119 21.9906 168.533 21.9153 168.95 21.922C169.692 21.8723 170.433 22.0329 171.085 22.3848C171.612 22.7883 172.029 23.3144 172.298 23.9157C172.646 23.2953 173.161 22.7811 173.787 22.4295C174.412 22.0778 175.124 21.9023 175.845 21.922C176.47 21.8746 177.097 21.9789 177.671 22.2257C178.245 22.4724 178.749 22.8541 179.138 23.3372C179.807 24.3574 180.124 25.5618 180.043 26.7728L179.998 35.0592ZM190.992 31.143C191.009 31.6911 190.907 32.2365 190.694 32.7429C190.48 33.2493 190.159 33.7052 189.752 34.0802C189.333 34.4685 188.84 34.7708 188.301 34.9695C187.762 35.1681 187.188 35.2592 186.612 35.2373C185.709 35.2458 184.821 35.0119 184.043 34.5608C183.345 34.1974 182.751 33.668 182.314 33.021L184.034 31.499C184.136 31.656 184.251 31.8048 184.377 31.944C184.662 32.2564 185.011 32.506 185.401 32.6763C185.791 32.8465 186.213 32.9337 186.64 32.932C187.169 32.9603 187.688 32.7847 188.087 32.4425C188.269 32.2715 188.409 32.063 188.498 31.8321C188.587 31.6012 188.623 31.3536 188.603 31.1074C188.603 30.4577 188.196 30.0126 187.364 29.7723C185.726 29.265 184.839 28.9891 184.712 28.9357C184.075 28.6403 183.514 28.2048 183.075 27.6629C182.662 27.0206 182.462 26.2677 182.504 25.5089C182.496 24.9834 182.603 24.4623 182.818 23.9814C183.034 23.5005 183.353 23.0712 183.753 22.7231C184.534 21.9975 185.575 21.6041 186.649 21.6283C187.472 21.619 188.285 21.815 189.01 22.1979C189.622 22.4916 190.146 22.9363 190.531 23.4885L189.092 25.0639C188.874 24.8495 188.641 24.6503 188.395 24.4676C187.919 24.0962 187.337 23.8813 186.73 23.8534C186.291 23.8382 185.859 23.9563 185.49 24.1917C185.299 24.3336 185.145 24.52 185.044 24.7343C184.943 24.9486 184.897 25.1841 184.911 25.4199C184.893 25.643 184.935 25.8669 185.034 26.0686C185.133 26.2704 185.284 26.4427 185.472 26.5681C186.133 26.8879 186.837 27.1127 187.563 27.2356C188.52 27.43 189.398 27.8975 190.087 28.5796C190.405 28.9252 190.649 29.3303 190.805 29.7707C190.96 30.2112 191.024 30.6779 190.992 31.143Z" fill="white"/>
<path opacity="0.5" d="M76.14 44.824V52H74.784V44.824H72.288V43.624H78.636V44.824H76.14ZM81.5246 52.144C81.0926 52.144 80.6966 52.068 80.3366 51.916C79.9846 51.764 79.6846 51.548 79.4366 51.268C79.1886 50.98 78.9966 50.636 78.8606 50.236C78.7246 49.828 78.6566 49.376 78.6566 48.88C78.6566 48.384 78.7246 47.936 78.8606 47.536C78.9966 47.128 79.1886 46.784 79.4366 46.504C79.6846 46.216 79.9846 45.996 80.3366 45.844C80.6966 45.692 81.0926 45.616 81.5246 45.616C81.9566 45.616 82.3486 45.692 82.7006 45.844C83.0606 45.996 83.3646 46.216 83.6126 46.504C83.8606 46.784 84.0526 47.128 84.1886 47.536C84.3246 47.936 84.3926 48.384 84.3926 48.88C84.3926 49.376 84.3246 49.828 84.1886 50.236C84.0526 50.636 83.8606 50.98 83.6126 51.268C83.3646 51.548 83.0606 51.764 82.7006 51.916C82.3486 52.068 81.9566 52.144 81.5246 52.144ZM81.5246 51.064C81.9726 51.064 82.3326 50.928 82.6046 50.656C82.8766 50.376 83.0126 49.96 83.0126 49.408V48.352C83.0126 47.8 82.8766 47.388 82.6046 47.116C82.3326 46.836 81.9726 46.696 81.5246 46.696C81.0766 46.696 80.7166 46.836 80.4446 47.116C80.1726 47.388 80.0366 47.8 80.0366 48.352V49.408C80.0366 49.96 80.1726 50.376 80.4446 50.656C80.7166 50.928 81.0766 51.064 81.5246 51.064ZM85.8501 45.76H87.1581V46.792H87.2181C87.3541 46.416 87.5741 46.128 87.8781 45.928C88.1901 45.72 88.5541 45.616 88.9701 45.616C89.7621 45.616 90.3741 45.904 90.8061 46.48C91.2381 47.048 91.4541 47.848 91.4541 48.88C91.4541 49.912 91.2381 50.716 90.8061 51.292C90.3741 51.86 89.7621 52.144 88.9701 52.144C88.5541 52.144 88.1901 52.04 87.8781 51.832C87.5741 51.624 87.3541 51.336 87.2181 50.968H87.1581V54.4H85.8501V45.76ZM88.5741 51.016C89.0301 51.016 89.3941 50.872 89.6661 50.584C89.9381 50.288 90.0741 49.9 90.0741 49.42V48.34C90.0741 47.86 89.9381 47.476 89.6661 47.188C89.3941 46.892 89.0301 46.744 88.5741 46.744C88.1741 46.744 87.8381 46.844 87.5661 47.044C87.2941 47.236 87.1581 47.492 87.1581 47.812V49.948C87.1581 50.268 87.2941 50.528 87.5661 50.728C87.8381 50.92 88.1741 51.016 88.5741 51.016ZM97.1196 52L95.1396 43.624H96.5196L97.3716 47.656L97.9596 50.44H97.9956L98.6676 47.656L99.6636 43.624H101.176L102.16 47.656L102.82 50.428H102.856L103.468 47.656L104.344 43.624H105.676L103.612 52H102.088L101.02 47.668L100.396 45.124H100.372L99.7356 47.668L98.6436 52H97.1196ZM109.122 52.144C108.674 52.144 108.274 52.068 107.922 51.916C107.57 51.764 107.27 51.548 107.022 51.268C106.774 50.98 106.582 50.636 106.446 50.236C106.318 49.828 106.254 49.376 106.254 48.88C106.254 48.384 106.318 47.936 106.446 47.536C106.582 47.128 106.774 46.784 107.022 46.504C107.27 46.216 107.57 45.996 107.922 45.844C108.274 45.692 108.674 45.616 109.122 45.616C109.578 45.616 109.978 45.696 110.322 45.856C110.674 46.016 110.966 46.24 111.198 46.528C111.43 46.808 111.602 47.136 111.714 47.512C111.834 47.888 111.894 48.292 111.894 48.724V49.216H107.61V49.42C107.61 49.9 107.75 50.296 108.03 50.608C108.318 50.912 108.726 51.064 109.254 51.064C109.638 51.064 109.962 50.98 110.226 50.812C110.49 50.644 110.714 50.416 110.898 50.128L111.666 50.884C111.434 51.268 111.098 51.576 110.658 51.808C110.218 52.032 109.706 52.144 109.122 52.144ZM109.122 46.636C108.898 46.636 108.69 46.676 108.498 46.756C108.314 46.836 108.154 46.948 108.018 47.092C107.89 47.236 107.79 47.408 107.718 47.608C107.646 47.808 107.61 48.028 107.61 48.268V48.352H110.514V48.232C110.514 47.752 110.39 47.368 110.142 47.08C109.894 46.784 109.554 46.636 109.122 46.636ZM113.342 43.12H114.65V46.792H114.71C114.846 46.416 115.066 46.128 115.37 45.928C115.682 45.72 116.046 45.616 116.462 45.616C117.254 45.616 117.866 45.904 118.298 46.48C118.73 47.048 118.946 47.848 118.946 48.88C118.946 49.912 118.73 50.716 118.298 51.292C117.866 51.86 117.254 52.144 116.462 52.144C116.046 52.144 115.682 52.04 115.37 51.832C115.066 51.624 114.846 51.336 114.71 50.968H114.65V52H113.342V43.12ZM116.066 51.016C116.522 51.016 116.886 50.872 117.158 50.584C117.43 50.288 117.566 49.9 117.566 49.42V48.34C117.566 47.86 117.43 47.476 117.158 47.188C116.886 46.892 116.522 46.744 116.066 46.744C115.666 46.744 115.33 46.844 115.058 47.044C114.786 47.236 114.65 47.492 114.65 47.812V49.948C114.65 50.268 114.786 50.528 115.058 50.728C115.33 50.92 115.666 51.016 116.066 51.016ZM123.376 43.624H126.34C126.876 43.624 127.36 43.712 127.792 43.888C128.232 44.064 128.604 44.328 128.908 44.68C129.22 45.024 129.46 45.46 129.628 45.988C129.796 46.508 129.88 47.116 129.88 47.812C129.88 48.508 129.796 49.12 129.628 49.648C129.46 50.168 129.22 50.604 128.908 50.956C128.604 51.3 128.232 51.56 127.792 51.736C127.36 51.912 126.876 52 126.34 52H123.376V43.624ZM126.34 50.8C126.964 50.8 127.468 50.604 127.852 50.212C128.236 49.82 128.428 49.244 128.428 48.484V47.14C128.428 46.38 128.236 45.804 127.852 45.412C127.468 45.02 126.964 44.824 126.34 44.824H124.732V50.8H126.34ZM133.919 52.144C133.471 52.144 133.071 52.068 132.719 51.916C132.367 51.764 132.067 51.548 131.819 51.268C131.571 50.98 131.379 50.636 131.243 50.236C131.115 49.828 131.051 49.376 131.051 48.88C131.051 48.384 131.115 47.936 131.243 47.536C131.379 47.128 131.571 46.784 131.819 46.504C132.067 46.216 132.367 45.996 132.719 45.844C133.071 45.692 133.471 45.616 133.919 45.616C134.375 45.616 134.775 45.696 135.119 45.856C135.471 46.016 135.763 46.24 135.995 46.528C136.227 46.808 136.399 47.136 136.511 47.512C136.631 47.888 136.691 48.292 136.691 48.724V49.216H132.407V49.42C132.407 49.9 132.547 50.296 132.827 50.608C133.115 50.912 133.523 51.064 134.051 51.064C134.435 51.064 134.759 50.98 135.023 50.812C135.287 50.644 135.511 50.416 135.695 50.128L136.463 50.884C136.231 51.268 135.895 51.576 135.455 51.808C135.015 52.032 134.503 52.144 133.919 52.144ZM133.919 46.636C133.695 46.636 133.487 46.676 133.295 46.756C133.111 46.836 132.951 46.948 132.815 47.092C132.687 47.236 132.587 47.408 132.515 47.608C132.443 47.808 132.407 48.028 132.407 48.268V48.352H135.311V48.232C135.311 47.752 135.187 47.368 134.939 47.08C134.691 46.784 134.351 46.636 133.919 46.636ZM139.39 52L137.266 45.76H138.562L139.51 48.604L140.146 50.788H140.218L140.854 48.604L141.826 45.76H143.074L140.926 52H139.39ZM146.529 52.144C146.081 52.144 145.681 52.068 145.329 51.916C144.977 51.764 144.677 51.548 144.429 51.268C144.181 50.98 143.989 50.636 143.853 50.236C143.725 49.828 143.661 49.376 143.661 48.88C143.661 48.384 143.725 47.936 143.853 47.536C143.989 47.128 144.181 46.784 144.429 46.504C144.677 46.216 144.977 45.996 145.329 45.844C145.681 45.692 146.081 45.616 146.529 45.616C146.985 45.616 147.385 45.696 147.729 45.856C148.081 46.016 148.373 46.24 148.605 46.528C148.837 46.808 149.009 47.136 149.121 47.512C149.241 47.888 149.301 48.292 149.301 48.724V49.216H145.017V49.42C145.017 49.9 145.157 50.296 145.437 50.608C145.725 50.912 146.133 51.064 146.661 51.064C147.045 51.064 147.369 50.98 147.633 50.812C147.897 50.644 148.121 50.416 148.305 50.128L149.073 50.884C148.841 51.268 148.505 51.576 148.065 51.808C147.625 52.032 147.113 52.144 146.529 52.144ZM146.529 46.636C146.305 46.636 146.097 46.676 145.905 46.756C145.721 46.836 145.561 46.948 145.425 47.092C145.297 47.236 145.197 47.408 145.125 47.608C145.053 47.808 145.017 48.028 145.017 48.268V48.352H147.921V48.232C147.921 47.752 147.797 47.368 147.549 47.08C147.301 46.784 146.961 46.636 146.529 46.636ZM152.081 52C151.633 52 151.297 51.888 151.073 51.664C150.857 51.432 150.749 51.112 150.749 50.704V43.12H152.057V50.932H152.921V52H152.081ZM156.618 52.144C156.186 52.144 155.79 52.068 155.43 51.916C155.078 51.764 154.778 51.548 154.53 51.268C154.282 50.98 154.09 50.636 153.954 50.236C153.818 49.828 153.75 49.376 153.75 48.88C153.75 48.384 153.818 47.936 153.954 47.536C154.09 47.128 154.282 46.784 154.53 46.504C154.778 46.216 155.078 45.996 155.43 45.844C155.79 45.692 156.186 45.616 156.618 45.616C157.05 45.616 157.442 45.692 157.794 45.844C158.154 45.996 158.458 46.216 158.706 46.504C158.954 46.784 159.146 47.128 159.282 47.536C159.418 47.936 159.486 48.384 159.486 48.88C159.486 49.376 159.418 49.828 159.282 50.236C159.146 50.636 158.954 50.98 158.706 51.268C158.458 51.548 158.154 51.764 157.794 51.916C157.442 52.068 157.05 52.144 156.618 52.144ZM156.618 51.064C157.066 51.064 157.426 50.928 157.698 50.656C157.97 50.376 158.106 49.96 158.106 49.408V48.352C158.106 47.8 157.97 47.388 157.698 47.116C157.426 46.836 157.066 46.696 156.618 46.696C156.17 46.696 155.81 46.836 155.538 47.116C155.266 47.388 155.13 47.8 155.13 48.352V49.408C155.13 49.96 155.266 50.376 155.538 50.656C155.81 50.928 156.17 51.064 156.618 51.064ZM160.944 45.76H162.252V46.792H162.312C162.448 46.416 162.668 46.128 162.972 45.928C163.284 45.72 163.648 45.616 164.064 45.616C164.856 45.616 165.468 45.904 165.9 46.48C166.332 47.048 166.548 47.848 166.548 48.88C166.548 49.912 166.332 50.716 165.9 51.292C165.468 51.86 164.856 52.144 164.064 52.144C163.648 52.144 163.284 52.04 162.972 51.832C162.668 51.624 162.448 51.336 162.312 50.968H162.252V54.4H160.944V45.76ZM163.668 51.016C164.124 51.016 164.488 50.872 164.76 50.584C165.032 50.288 165.168 49.9 165.168 49.42V48.34C165.168 47.86 165.032 47.476 164.76 47.188C164.488 46.892 164.124 46.744 163.668 46.744C163.268 46.744 162.932 46.844 162.66 47.044C162.388 47.236 162.252 47.492 162.252 47.812V49.948C162.252 50.268 162.388 50.528 162.66 50.728C162.932 50.92 163.268 51.016 163.668 51.016ZM170.493 52.144C170.045 52.144 169.645 52.068 169.293 51.916C168.941 51.764 168.641 51.548 168.393 51.268C168.145 50.98 167.953 50.636 167.817 50.236C167.689 49.828 167.625 49.376 167.625 48.88C167.625 48.384 167.689 47.936 167.817 47.536C167.953 47.128 168.145 46.784 168.393 46.504C168.641 46.216 168.941 45.996 169.293 45.844C169.645 45.692 170.045 45.616 170.493 45.616C170.949 45.616 171.349 45.696 171.693 45.856C172.045 46.016 172.337 46.24 172.569 46.528C172.801 46.808 172.973 47.136 173.085 47.512C173.205 47.888 173.265 48.292 173.265 48.724V49.216H168.981V49.42C168.981 49.9 169.121 50.296 169.401 50.608C169.689 50.912 170.097 51.064 170.625 51.064C171.009 51.064 171.333 50.98 171.597 50.812C171.861 50.644 172.085 50.416 172.269 50.128L173.037 50.884C172.805 51.268 172.469 51.576 172.029 51.808C171.589 52.032 171.077 52.144 170.493 52.144ZM170.493 46.636C170.269 46.636 170.061 46.676 169.869 46.756C169.685 46.836 169.525 46.948 169.389 47.092C169.261 47.236 169.161 47.408 169.089 47.608C169.017 47.808 168.981 48.028 168.981 48.268V48.352H171.885V48.232C171.885 47.752 171.761 47.368 171.513 47.08C171.265 46.784 170.925 46.636 170.493 46.636ZM174.713 52V45.76H176.021V46.96H176.081C176.169 46.64 176.353 46.36 176.633 46.12C176.913 45.88 177.301 45.76 177.797 45.76H178.145V47.02H177.629C177.109 47.02 176.709 47.104 176.429 47.272C176.157 47.44 176.021 47.688 176.021 48.016V52H174.713Z" fill="white"/>
</svg>
