<svg width="24" height="25" viewBox="0 0 24 25" fill="none" xmlns="http://www.w3.org/2000/svg">
<mask id="path-1-inside-1_512_30417" fill="white">
<path fill-rule="evenodd" clip-rule="evenodd" d="M2.50001 7.5C1.80143 10.7967 1.80143 14.2033 2.50001 17.5C2.5918 17.8348 2.76914 18.1399 3.01461 18.3854C3.26008 18.6309 3.56522 18.8082 3.90001 18.9C9.26344 19.7887 14.7366 19.7887 20.1 18.9C20.4348 18.8082 20.7399 18.6309 20.9854 18.3854C21.2309 18.1399 21.4082 17.8348 21.5 17.5C22.1986 14.2033 22.1986 10.7967 21.5 7.5C21.4082 7.16521 21.2309 6.86007 20.9854 6.61461C20.7399 6.36914 20.4348 6.19179 20.1 6.1C14.7366 5.21146 9.26346 5.21146 3.90001 6.1C3.56522 6.19179 3.26008 6.36914 3.01461 6.61461C2.76914 6.86007 2.5918 7.16521 2.50001 7.5ZM15 12.5L10 15.5V9.5L15 12.5Z"/>
</mask>
<path fill-rule="evenodd" clip-rule="evenodd" d="M2.50001 7.5C1.80143 10.7967 1.80143 14.2033 2.50001 17.5C2.5918 17.8348 2.76914 18.1399 3.01461 18.3854C3.26008 18.6309 3.56522 18.8082 3.90001 18.9C9.26344 19.7887 14.7366 19.7887 20.1 18.9C20.4348 18.8082 20.7399 18.6309 20.9854 18.3854C21.2309 18.1399 21.4082 17.8348 21.5 17.5C22.1986 14.2033 22.1986 10.7967 21.5 7.5C21.4082 7.16521 21.2309 6.86007 20.9854 6.61461C20.7399 6.36914 20.4348 6.19179 20.1 6.1C14.7366 5.21146 9.26346 5.21146 3.90001 6.1C3.56522 6.19179 3.26008 6.36914 3.01461 6.61461C2.76914 6.86007 2.5918 7.16521 2.50001 7.5ZM15 12.5L10 15.5V9.5L15 12.5Z" fill="#D9D9D9"/>
<path d="M2.50001 17.5L1.52173 17.7073C1.52579 17.7265 1.53042 17.7455 1.5356 17.7644L2.50001 17.5ZM2.50001 7.5L1.5356 7.23559C1.53042 7.25449 1.52579 7.27353 1.52173 7.2927L2.50001 7.5ZM3.01461 18.3854L2.30751 19.0925L2.30751 19.0925L3.01461 18.3854ZM3.90001 18.9L3.6356 19.8644C3.66884 19.8735 3.70253 19.8809 3.73654 19.8865L3.90001 18.9ZM20.1 18.9L20.2635 19.8865C20.2975 19.8809 20.3312 19.8735 20.3644 19.8644L20.1 18.9ZM21.5 17.5L22.4644 17.7644C22.4696 17.7455 22.4742 17.7265 22.4783 17.7073L21.5 17.5ZM21.5 7.5L22.4783 7.2927C22.4742 7.27353 22.4696 7.25449 22.4644 7.23559L21.5 7.5ZM20.9854 6.61461L21.6925 5.9075V5.9075L20.9854 6.61461ZM20.1 6.1L20.3644 5.13559C20.3312 5.12647 20.2975 5.11908 20.2634 5.11345L20.1 6.1ZM3.90001 6.1L3.73657 5.11345C3.70255 5.11908 3.66885 5.12647 3.6356 5.13559L3.90001 6.1ZM3.01461 6.61461L2.30751 5.9075L2.30751 5.9075L3.01461 6.61461ZM10 15.5H9C9 15.8603 9.19379 16.1927 9.5073 16.3702C9.82081 16.5477 10.2056 16.5429 10.5145 16.3575L10 15.5ZM15 12.5L15.5145 13.3575C15.8157 13.1768 16 12.8513 16 12.5C16 12.1487 15.8157 11.8232 15.5145 11.6425L15 12.5ZM10 9.5L10.5145 8.64251C10.2056 8.45715 9.82081 8.45229 9.5073 8.6298C9.19379 8.80731 9 9.13973 9 9.5H10ZM3.47828 17.2927C2.80867 14.1326 2.80867 10.8673 3.47828 7.7073L1.52173 7.2927C0.794189 10.7261 0.794189 14.2739 1.52173 17.7073L3.47828 17.2927ZM3.72172 17.6783C3.59899 17.5556 3.51031 17.403 3.46442 17.2356L1.5356 17.7644C1.67328 18.2666 1.9393 18.7243 2.30751 19.0925L3.72172 17.6783ZM4.16442 17.9356C3.99702 17.8897 3.84445 17.801 3.72172 17.6783L2.30751 19.0925C2.67571 19.4607 3.13341 19.7267 3.6356 19.8644L4.16442 17.9356ZM19.9365 17.9135C14.6813 18.7842 9.31867 18.7842 4.06348 17.9135L3.73654 19.8865C9.20821 20.7932 14.7918 20.7932 20.2635 19.8865L19.9365 17.9135ZM20.2783 17.6783C20.1556 17.801 20.003 17.8897 19.8356 17.9356L20.3644 19.8644C20.8666 19.7267 21.3243 19.4607 21.6925 19.0925L20.2783 17.6783ZM20.5356 17.2356C20.4897 17.403 20.401 17.5556 20.2783 17.6783L21.6925 19.0925C22.0607 18.7243 22.3267 18.2666 22.4644 17.7644L20.5356 17.2356ZM20.5217 7.7073C21.1913 10.8673 21.1913 14.1326 20.5217 17.2927L22.4783 17.7073C23.2058 14.2739 23.2058 10.7261 22.4783 7.2927L20.5217 7.7073ZM20.2783 7.32171C20.401 7.44445 20.4897 7.59701 20.5356 7.76441L22.4644 7.23559C22.3267 6.7334 22.0607 6.2757 21.6925 5.9075L20.2783 7.32171ZM19.8356 7.06441C20.003 7.1103 20.1556 7.19898 20.2783 7.32171L21.6925 5.9075C21.3243 5.5393 20.8666 5.27327 20.3644 5.13559L19.8356 7.06441ZM4.06344 7.08655C9.31867 6.21594 14.6813 6.21594 19.9366 7.08655L20.2634 5.11345C14.7918 4.20698 9.20824 4.20698 3.73657 5.11345L4.06344 7.08655ZM3.72172 7.32171C3.84445 7.19898 3.99702 7.1103 4.16442 7.06441L3.6356 5.13559C3.13341 5.27327 2.67571 5.5393 2.30751 5.9075L3.72172 7.32171ZM3.46442 7.76441C3.51031 7.59701 3.59899 7.44445 3.72172 7.32171L2.30751 5.9075C1.9393 6.2757 1.67328 6.7334 1.5356 7.23559L3.46442 7.76441ZM10.5145 16.3575L15.5145 13.3575L14.4855 11.6425L9.4855 14.6425L10.5145 16.3575ZM9 9.5V15.5H11V9.5H9ZM15.5145 11.6425L10.5145 8.64251L9.4855 10.3575L14.4855 13.3575L15.5145 11.6425Z" fill="#D9D9D9" mask="url(#path-1-inside-1_512_30417)"/>
</svg>
